# xmcd
#
# Track frame offsets: 
#        150
#        12402
#        26272
#        39345
#        53435
#        68047
#        79955
#        91972
#        103467
#        114980
#        129342
#        141365
#
# Disc length: 2023 seconds
#
# Revision: 4
# Processed by: cddbd v1.5.2PL0 Copyright (c) Steve Scherf et al.
# Submitted via: ExactAudioCopyFreeDBPlugin 1.0
#
DISCID=9607e50c
DTITLE=Freddie King - Let's Hide Away and Dance Away with Freddy King 
DYEAR=1961
DGENRE=Electric Texas Blues
TTITLE0=Hide Away
TTITLE1=Butterscotch
TTITLE2=Sen-Sa-Shun
TTITLE3=Side Tracked
TTITLE4=The Stumble
TTITLE5=Wash Out
TTITLE6=San-Ho-Zay
TTITLE7=Just Pickin'
TTITLE8=Heads Up
TTITLE9=In the Open
TTITLE10=Out Front
TTITLE11=Swooshy
EXTD=YEAR: 1961
EXTT0=
EXTT1=
EXTT2=
EXTT3=
EXTT4=
EXTT5=
EXTT6=
EXTT7=
EXTT8=
EXTT9=
EXTT10=
EXTT11=
PLAYORDER=
